<svg width="120" height="30" viewBox="0 0 120 30" fill="none" xmlns="http://www.w3.org/2000/svg">
<path fill-rule="evenodd" clip-rule="evenodd" d="M19.4275 24.3936C23.7133 24.8891 26.6411 25.8803 26.6411 27.0341C26.6411 28.6688 20.6755 30.0001 13.3206 30.0001C5.95776 30.0001 0 28.6688 0 27.0341C0 25.8803 2.93571 24.8817 7.23722 24.3936C7.29217 24.4527 7.34711 24.5193 7.40206 24.5785C7.45701 24.645 7.51195 24.7042 7.57475 24.7634C8.01432 25.2368 8.51669 25.7249 9.06615 26.1687C8.13206 26.398 7.5669 26.7013 7.5669 27.0341C7.5669 27.7368 10.1415 28.3137 13.3206 28.3137C16.4918 28.3137 19.0664 27.7368 19.0664 27.0341C19.0664 26.7013 18.5091 26.4054 17.5985 26.1761C17.6927 26.0948 17.7948 26.0134 17.889 25.932C17.9361 25.8951 17.9832 25.8581 18.0224 25.8211C18.5248 25.3773 18.9879 24.8965 19.4275 24.3936Z" fill="#2C72F4"/>
<path fill-rule="evenodd" clip-rule="evenodd" d="M25.0476 10.9395C25.0476 10.9765 25.0476 11.0208 25.0476 11.0578C25.0476 11.8493 24.9612 12.6259 24.7885 13.3803C24.6159 14.1422 24.3647 14.867 24.035 15.5549L24.0036 15.6289L23.9879 15.6659L23.9722 15.7102L23.933 15.7842L23.9016 15.8582L23.8859 15.8952L23.8623 15.9395L23.8309 16.0135V16.0209L23.7838 16.1245L23.776 16.1318L23.7603 16.1762L23.721 16.2502V16.2576L23.6818 16.339L23.6661 16.3685L23.6425 16.4203L23.6111 16.4943L23.6033 16.5017L23.564 16.583L23.5562 16.6126L23.5483 16.6274L23.4934 16.7384L23.4855 16.7532L23.4463 16.8345L23.4306 16.8641L23.407 16.9159L23.3678 16.9898L23.3599 17.0046L23.3207 17.086L23.305 17.1156L23.2814 17.1748L23.2422 17.2413L23.2344 17.2635L23.1873 17.3449L23.1794 17.3671L23.1716 17.3819L23.1166 17.5002L23.1009 17.5224L23.0538 17.6112L23.046 17.6259L23.0381 17.6407C22.4573 18.7724 21.7508 19.9854 20.9737 21.1467C20.4478 21.9381 19.8826 22.7148 19.2939 23.4248L19.1997 23.5432L19.1212 23.6393L19.0977 23.6615L19.0898 23.6689L19.0349 23.7355L19.0035 23.7725L18.9799 23.8021L18.925 23.8612L18.9171 23.8686V23.876C18.454 24.4012 17.983 24.882 17.5121 25.311C17.4728 25.3405 17.4414 25.3701 17.4022 25.3923C16.0992 26.524 14.7098 27.2414 13.3126 27.2414C11.5465 27.2414 9.74894 26.0358 8.1241 24.2828C8.077 24.2385 8.0299 24.1867 7.99066 24.1349C7.87291 24.0166 7.76302 23.8834 7.65313 23.7577L7.64528 23.7503L7.63743 23.7429C6.73474 22.6926 5.8713 21.4869 5.1099 20.2665C4.18366 18.7946 3.38301 17.2931 2.80215 16.0135L2.7472 15.9026V15.8952L2.73935 15.8804L2.71581 15.8138L2.70011 15.7842L2.68441 15.7546L2.65301 15.6881L2.64516 15.6659L2.62946 15.6215L2.59806 15.5549L2.59021 15.5327L2.58236 15.5253V15.5179L2.56666 15.4957L2.55882 15.4736L2.55097 15.4588V15.4514L2.53527 15.4144L2.52742 15.3922H2.51957L2.51172 15.37V15.3626L2.50387 15.3478C2.22129 14.7191 2.0015 14.0608 1.84451 13.3803C1.83666 13.3286 1.82096 13.2768 1.81311 13.225L1.80527 13.2028V13.1806L1.79742 13.1658V13.151C1.76602 13.0253 1.74247 12.8922 1.72677 12.759L1.71892 12.7368V12.7294L1.71107 12.6851C1.62473 12.1525 1.58548 11.6052 1.58548 11.0578C1.58548 8.00305 2.89634 5.23675 5.02355 3.23968C6.95453 1.42014 9.56055 0.229293 12.4492 0.0295861C12.512 0.0295861 12.5669 0.0221896 12.6219 0.0221896L12.6846 0.0147931H12.7474L12.8259 0.00739654H12.873C12.9123 0.00739654 12.9594 0.00739654 12.9986 0.00739654H13.0457L13.1399 0H13.1792C13.2263 0 13.2734 0 13.3126 0C13.3597 0 13.4068 0 13.4539 0H13.4774L13.603 0.00739654H13.6344H13.7522H13.7993L13.8778 0.0147931C13.917 0.0147931 13.9484 0.0147931 13.9877 0.0147931L14.0112 0.0221896C16.9783 0.184913 19.6471 1.38315 21.6095 3.23968C23.7053 5.21456 25.0162 7.92909 25.0476 10.9395ZM17.7947 10.8729C17.2766 11.3907 16.7978 11.9528 16.3661 12.5445C14.859 14.6377 13.9798 17.1526 13.9798 19.8523C13.9798 20.7103 14.074 21.5535 14.2467 22.3745C14.3409 22.8627 14.4743 23.3361 14.6313 23.8021C14.1525 24.1275 13.7129 24.3198 13.3126 24.3198C12.7082 24.3198 11.9546 23.839 11.154 23.0772C11.3738 22.6778 11.5622 22.2562 11.7113 21.8124C11.9939 20.9988 12.143 20.1482 12.143 19.268C12.143 16.9898 11.1618 14.9262 9.57625 13.4321C8.28109 12.2117 6.5856 11.3685 4.68603 11.1022V11.0578C4.68603 10.4661 4.74882 9.88917 4.88226 9.33443C5.60441 9.72645 6.36581 10.0593 7.16646 10.3182C8.61077 10.7989 10.1571 11.0578 11.7584 11.0578C13.6658 11.0578 15.4869 10.6954 17.1432 10.0297L15.7852 8.28412L18.611 7.98826L21.429 7.6998L20.2908 10.148L19.1448 12.5963L17.7947 10.8729ZM19.3175 5.20716C17.8104 3.8388 15.7852 2.9808 13.5481 2.92903H13.5324L13.446 2.92163H13.4303H13.4146H13.3126H13.2184H13.187L13.1085 2.92903H13.085C13.0143 2.92903 12.9515 2.92903 12.8809 2.93643H12.8652C10.6595 3.03998 8.67356 3.92756 7.21356 5.30332C6.78969 5.70273 6.41291 6.14652 6.08323 6.6199C6.74259 7.00452 7.44904 7.32257 8.18689 7.56666C9.29367 7.93648 10.4946 8.13619 11.7584 8.13619C13.4382 8.13619 15.0159 7.77376 16.4289 7.13766C17.4964 6.64949 18.4776 5.9912 19.3175 5.20716ZM7.77087 18.7798C8.13195 19.3567 8.50872 19.9189 8.9012 20.4588C8.99539 20.0816 9.04249 19.6822 9.04249 19.268C9.04249 17.7961 8.40668 16.4647 7.3784 15.4957C6.82108 14.9706 6.13818 14.549 5.38463 14.2827L5.42388 14.3715H5.43173V14.3789V14.3863H5.43958V14.3937V14.4011H5.44742V14.4085V14.4159H5.45527V14.4232V14.4306H5.46312V14.438V14.4454V14.4528H5.47097V14.4602L5.49452 14.5194L5.51807 14.5638V14.5786L5.54947 14.6377L5.55732 14.6673L5.57302 14.6969L5.60441 14.7561C6.13818 15.9543 6.89173 17.3819 7.77087 18.7798ZM21.7586 12.7738V12.7516H21.7665V12.7368V12.722L21.7743 12.7146V12.6999V12.6925L21.7822 12.6703V12.6481L21.79 12.6259V12.6185L21.7979 12.6037V12.5963V12.5889V12.5667H21.8057V12.5445L21.8136 12.5223V12.5149V12.5001V12.4928L21.8214 12.478V12.4632V12.4558L21.8293 12.441V12.4336V12.4114L21.8371 12.3966V12.3892V12.3744V12.3596L21.845 12.3522V12.3374V12.33V12.3078L21.8528 12.2856V12.2783V12.2635L21.8607 12.2561V12.2413V12.2265V12.2191L21.8685 12.2043V12.1969V12.1747V12.1525H21.8764V12.1303V12.1229V12.1081V12.0933L21.8842 12.0859V12.0711V12.049V12.0416L21.8921 12.0268V12.0194V12.0046V11.9898V11.9824L21.8999 11.9602V11.938V11.9158V11.9084L21.9078 11.8936V11.8788V11.8714V11.8566V11.8493V11.8271L21.9156 11.8049V11.7975V11.7827V11.7753V11.7605V11.7457V11.7383L21.9235 11.7161V11.6939V11.6717V11.6643V11.6495V11.6348L21.9313 11.6126V11.6052V11.583V11.5608V11.5534V11.5386V11.5312V11.5164L21.9392 11.5016V11.4868V11.472V11.4646V11.4424V11.4203V11.3981V11.3907V11.3759C20.7539 12.1155 19.7256 13.0697 18.925 14.1792C17.7633 15.7916 17.0882 17.7443 17.0882 19.8523C17.0882 20.3257 17.1196 20.7843 17.1824 21.2281C17.5827 20.7103 17.983 20.163 18.3598 19.5934C19.2704 18.2251 20.0789 16.768 20.6911 15.4957V15.4883L20.7225 15.4292L20.7304 15.407L20.7696 15.333L20.7775 15.3182L20.801 15.2591L20.8246 15.2073L20.8403 15.1851L20.8717 15.1037L20.8795 15.0963L20.9109 15.0298L20.9266 14.9854L20.9737 14.8892L20.9816 14.8818L21.0051 14.8153L21.0286 14.7709L21.0365 14.7413L21.0679 14.6673H21.0757L21.0993 14.6008L21.115 14.5638L21.1307 14.5268L21.1621 14.4602C21.1699 14.438 21.1778 14.4232 21.1856 14.4011C21.4368 13.8833 21.6331 13.3434 21.7586 12.7738Z" fill="#2C72F4"/>
<path fill-rule="evenodd" clip-rule="evenodd" d="M37.2633 4.86328H51.2301L49.8957 8.5936H43.8375L41.3644 24.722H37.2811L39.7631 8.5936H36L37.2633 4.86328Z" fill="#2C72F4"/>
<path fill-rule="evenodd" clip-rule="evenodd" d="M45.261 10.0357H48.6415L48.3568 11.9051C48.8283 11.1758 49.3887 10.6225 50.0471 10.2453C51.5861 9.35672 53.6944 9.72556 54.9221 10.6644C54.6374 10.8572 54.3616 11.0752 54.0859 11.3015C53.4365 11.8464 52.876 12.4416 52.4045 13.0703C51.3192 12.7685 49.967 12.8859 49.1752 13.9588C48.6504 14.663 48.2323 16.0378 47.912 18.0832L47.823 18.7957L46.9067 24.7223H43.0103L45.261 10.0357Z" fill="#2C72F4"/>
<path fill-rule="evenodd" clip-rule="evenodd" d="M67.6789 18.418H55.1266C55.1444 19.4658 55.5002 20.2957 56.1852 20.9161C56.8791 21.5364 57.831 21.8465 59.0497 21.8465C60.4998 21.8465 61.8253 21.3603 63.0174 20.3963L66.0776 21.8549C65.0902 22.9531 63.9782 23.7662 62.7594 24.2943C61.5317 24.8224 60.1351 25.0823 58.5693 25.0823C56.1318 25.0823 54.2548 24.3614 52.947 22.9028C51.6393 21.4609 51.15 19.6419 51.4881 17.4624C51.8261 15.2242 52.8848 13.3632 54.6373 11.8878C56.3987 10.4125 58.427 9.6748 60.7489 9.6748C63.1953 9.6748 65.0813 10.4125 66.389 11.8795C67.6967 13.3548 68.1682 15.2996 67.7946 17.7222L67.6789 18.418ZM64.2273 15.5343C64.0938 14.738 63.6846 14.0841 62.9996 13.5812C62.3146 13.0782 61.4695 12.8267 60.4642 12.8267C59.3789 12.8267 58.3736 13.1117 57.4662 13.6734C56.8969 14.0254 56.3186 14.6458 55.7404 15.5343H64.2273Z" fill="#2C72F4"/>
<path fill-rule="evenodd" clip-rule="evenodd" d="M65.6328 10.0353H70.7926C71.095 8.1073 71.3085 6.97563 71.4153 6.62355C71.6466 5.81881 72.1003 5.18172 72.7853 4.71229C73.4703 4.23447 74.3777 3.99976 75.4986 3.99976C76.3081 3.99976 77.1888 4.17579 78.1585 4.52787L77.7226 7.3277C77.1888 7.17682 76.7351 7.10137 76.3793 7.10137C75.9167 7.10137 75.5787 7.1852 75.3385 7.36962C75.1605 7.50374 75.0449 7.78037 74.9826 8.19951L74.6802 10.0353H77.1622L76.6818 13.1621H74.2176L72.4383 24.7219H68.533L70.3122 13.1621H68.2928C68.017 12.4915 67.6345 11.8628 67.1185 11.2844C66.6826 10.7898 66.1844 10.3706 65.6328 10.0353Z" fill="#2C72F4"/>
<path fill-rule="evenodd" clip-rule="evenodd" d="M76.3881 10.0353H80.1156C80.427 8.1073 80.6316 6.97563 80.7383 6.62355C80.9696 5.81881 81.4233 5.18172 82.1083 4.71229C82.8022 4.23447 83.7007 3.99976 84.8216 3.99976C85.6312 3.99976 86.5208 4.17579 87.4815 4.52787L87.0545 7.3277C86.5119 7.17682 86.0671 7.10137 85.7023 7.10137C85.2486 7.10137 84.9017 7.1852 84.6615 7.36962C84.4925 7.50374 84.3679 7.78037 84.3056 8.19951L84.0121 10.0353H86.4852L86.0048 13.1621H83.5406L81.7614 24.7219H77.8649L79.6352 13.1621H75.9077L76.3881 10.0353Z" fill="#2C72F4"/>
<path fill-rule="evenodd" clip-rule="evenodd" d="M91.1734 3.99976C91.8584 3.99976 92.4099 4.23447 92.828 4.70391C93.2462 5.17334 93.4063 5.73498 93.3084 6.39722C93.2017 7.05107 92.8725 7.60434 92.321 8.06539C91.7694 8.52644 91.1467 8.76115 90.4706 8.76115C89.7767 8.76115 89.2162 8.52644 88.7981 8.057C88.38 7.58757 88.2199 7.01754 88.3266 6.33854C88.4245 5.69307 88.7536 5.14819 89.3052 4.68714C89.8656 4.23447 90.4884 3.99976 91.1734 3.99976ZM88.2821 10.0353H92.1875L89.9368 24.7219H86.0314L88.2821 10.0353Z" fill="#2C72F4"/>
<path fill-rule="evenodd" clip-rule="evenodd" d="M94.2963 10.0356H98.8422L101.315 14.0342L104.989 10.0356H109.473L103.112 16.9514L107.889 24.7222H103.352L100.39 19.9105L95.9687 24.7222H91.4851L98.5842 16.9933L94.2963 10.0356Z" fill="#2C72F4"/>
</svg>
